<svg width="374" height="391" viewBox="0 0 374 391" fill="none" xmlns="http://www.w3.org/2000/svg">
<path d="M1.5 3.2C1.2 3.89999 1.1 22.1 1.2 43.5L1.5 82.5L38.9 82.8L82 82.9L40.1 124.4L1 163.5L1.2 204L1.5 244.5H41.5H81.5L81.8 164.5L82 82.9H104.1L124.3 83L128.2 84.2C132.7 85.5 139.9 91.5 142.9 96.3C144 98.1 145.7 102.3 146.7 105.6L148.4 111.5L149 178L149.5 244.5H188H226.5L226.8 164.4L227 84.2L228.3 83.4L229.5 82.5L250 83L270.5 83.5L274.6 85.7C280.1 88.6 285.4 95 288.2 101.9L290.5 107.5L291 176L291.5 244.5H331H370.5L370.8 157.5L371 70.5L368.5 61.5C363.9 45.3 356.1 32.6 343.9 21.6L337.7 16.1L329.1 11.6C324.3 9.09999 316.4 5.99998 311.6 4.59999L302.8 2H232.6H162.5L123.5 41L85 80L83.5 81.5L82 82.9L81.8 40.1L81.5 2.5L41.7 2.2L1.9 2L1.5 3.2Z" fill="#DDFF00"/>
<path d="M105.696 300.144V390H83.808V336.112L63.712 390H46.048L25.824 335.984V390H3.93597V300.144H29.792L55.008 362.352L79.968 300.144H105.696Z" fill="currentColor"/>
<path d="M163.932 390.896C155.484 390.896 147.719 388.933 140.636 385.008C133.639 381.083 128.049 375.621 123.868 368.624C119.772 361.541 117.724 353.605 117.724 344.816C117.724 336.027 119.772 328.133 123.868 321.136C128.049 314.139 133.639 308.677 140.636 304.752C147.719 300.827 155.484 298.864 163.932 298.864C172.38 298.864 180.103 300.827 187.1 304.752C194.183 308.677 199.729 314.139 203.74 321.136C207.836 328.133 209.884 336.027 209.884 344.816C209.884 353.605 207.836 361.541 203.74 368.624C199.644 375.621 194.097 381.083 187.1 385.008C180.103 388.933 172.38 390.896 163.932 390.896ZM163.932 370.928C171.1 370.928 176.817 368.539 181.084 363.76C185.436 358.981 187.612 352.667 187.612 344.816C187.612 336.88 185.436 330.565 181.084 325.872C176.817 321.093 171.1 318.704 163.932 318.704C156.679 318.704 150.876 321.051 146.524 325.744C142.257 330.437 140.124 336.795 140.124 344.816C140.124 352.752 142.257 359.109 146.524 363.888C150.876 368.581 156.679 370.928 163.932 370.928Z" fill="currentColor"/>
<path d="M306.413 300.144L274.541 390H247.149L215.277 300.144H238.573L260.845 367.984L283.245 300.144H306.413Z" fill="currentColor"/>
<path d="M337.449 317.68V335.856H366.761V352.752H337.449V372.464H370.601V390H315.561V300.144H370.601V317.68H337.449Z" fill="currentColor"/>
</svg>
