<svg width="370" height="243" viewBox="0 0 370 243" fill="none" xmlns="http://www.w3.org/2000/svg">
<path d="M0.5 1.2C0.2 1.89999 0.1 20.1 0.2 41.5L0.5 80.5L37.9 80.8L81 80.9L39.1 122.4L0 161.5L0.2 202L0.5 242.5H40.5H80.5L80.8 162.5L81 80.9H103.1L123.3 81L127.2 82.2C131.7 83.5 138.9 89.5 141.9 94.3C143 96.1 144.7 100.3 145.7 103.6L147.4 109.5L148 176L148.5 242.5H187H225.5L225.8 162.4L226 82.2L227.3 81.4L228.5 80.5L249 81L269.5 81.5L273.6 83.7C279.1 86.6 284.4 93 287.2 99.9L289.5 105.5L290 174L290.5 242.5H330H369.5L369.8 155.5L370 68.5L367.5 59.5C362.9 43.3 355.1 30.6 342.9 19.6L336.7 14.1L328.1 9.59999C323.3 7.09999 315.4 3.99998 310.6 2.59999L301.8 0H231.6H161.5L122.5 39L84 78L82.5 79.5L81 80.9L80.8 38.1L80.5 0.5L40.7 0.199997L0.9 0L0.5 1.2Z" fill="currentColor"/>
</svg>
